#!OML:ASF E:\Style4\Style4.ASF
:FULLY-SPECIFIED
:DEGREES
3322
root -0.340704 17.2892 -2.11773 17.4918 17.811 1.98411
lowerback 19.4155 4.12321 2.39841
upperback 6.77669 5.77824 -1.44171
thorax -3.10805 2.91331 -4.11594
lowerneck -8.23116 -4.83758 -4.50846
upperneck -15.4681 -5.62083 5.26569
head -3.33331 -2.65988 2.53041
rclavicle 1.98785e-014 3.49861e-014
rhumerus 69.4695 -2.83084 -42.5531
rradius 33.9654
rwrist -61.8147
rhand -3.15727 13.0472
rfingers 7.12502
rthumb 22.563 -15.6543
lclavicle 1.98785e-014 3.49861e-014
lhumerus 75.6137 -0.537888 37.1784
lradius 43.3628
lwrist 58.1183
lhand 17.0075 29.442
lfingers 7.12502
lthumb 41.7378 54.1193
rfemur -43.939 -11.8876 20.7732
rtibia 49.0055
rfoot -20.9363 -17.6698
rtoes -10.625
lfemur -48.0015 -2.50849 -19.7444
ltibia 44.0035
lfoot -10.6315 -1.35236
ltoes -14.8875
3323
root -0.343175 17.2575 -2.13468 17.5044 17.8021 2.06308
lowerback 19.5176 4.06697 2.37552
upperback 6.85534 5.70248 -1.44562
thorax -3.08446 2.87798 -4.09654
lowerneck -8.11573 -4.81659 -4.57207
upperneck -15.3472 -5.60104 5.26771
head -3.31027 -2.65004 2.54233
rclavicle -1.11319e-014 1.19271e-014
rhumerus 68.712 -2.34981 -40.7726
rradius 35.2269
rwrist -63.4476
rhand -3.07733 13.1419
rfingers 7.12502
rthumb 22.6397 -15.5503
lclavicle -1.11319e-014 1.19271e-014
lhumerus 74.8057 -0.635941 36.1527
lradius 44.449
lwrist 58.9929
lhand 17.087 29.0001
lfingers 7.12502
lthumb 41.8124 53.6527
rfemur -44.2945 -11.8358 20.6619
rtibia 49.5303
rfoot -21.1709 -17.7095
rtoes -10.2341
lfemur -48.3075 -2.43941 -19.8674
ltibia 44.4348
lfoot -10.7636 -1.5207
ltoes -14.0086
3324
root -0.344074 17.2299 -2.15342 17.4717 17.7876 2.15767
lowerback 19.6351 4.04358 2.37093
upperback 6.94521 5.67268 -1.45619
thorax -3.05014 2.86613 -4.10431
lowerneck -7.93461 -4.81405 -4.54155
upperneck -15.218 -5.621 5.2086
head -3.29767 -2.66436 2.5185
rclavicle 2.70347e-014 -1.98785e-014
rhumerus 67.9903 -2.01245 -39.4079
rradius 36.2814
rwrist -65.0352
rhand -1.8648 13.162
rfingers 7.12502
rthumb 23.8031 -15.3835
lclavicle 2.70347e-014 -1.98785e-014
lhumerus 74.0907 -0.822917 35.3051
lradius 45.6267
lwrist 59.7271
lhand 16.8316 28.8679
lfingers 7.12502
lthumb 41.5728 53.5994
rfemur -44.5785 -11.8312 20.5271
rtibia 50.0183
rfoot -21.4122 -17.6838
rtoes -9.63945
lfemur -48.5426 -2.35572 -20.0348
ltibia 44.8455
lfoot -10.9266 -1.66175
ltoes -13.7001
3325
root -0.347305 17.2017 -2.1718 17.3767 17.8307 2.1548
lowerback 19.7777 3.97974 2.46414
upperback 7.03327 5.60971 -1.45366
thorax -3.02485 2.83866 -4.14832
lowerneck -7.78834 -4.78177 -4.51317
upperneck -15.0828 -5.59689 5.16224
head -3.27888 -2.65625 2.49843
rclavicle 1.03368e-014 2.70347e-014
rhumerus 67.3104 -1.62315 -38.1276
rradius 37.3784
rwrist -66.309
rhand -1.42009 12.9074
rfingers 7.12502
rthumb 24.2295 -15.5818
lclavicle 1.03368e-014 2.70347e-014
lhumerus 73.406 -0.996164 34.3587
lradius 46.8041
lwrist 60.6785
lhand 16.3879 29.0967
lfingers 7.12502
lthumb 41.1564 53.9632
rfemur -44.7964 -11.8231 20.5107
rtibia 50.4904
rfoot -21.5854 -17.721
rtoes -9.63063
lfemur -48.7239 -2.24436 -20.1205
ltibia 45.2496
lfoot -11.0874 -1.7024
ltoes -14.5871
3326
root -0.350285 17.1755 -2.18869 17.3222 17.8711 2.12076
lowerback 19.8448 3.89857 2.55992
upperback 7.11228 5.52502 -1.42566
thorax -2.97512 2.80066 -4.15616
lowerneck -7.64909 -4.73967 -4.60974
upperneck -14.9724 -5.54342 5.2042
head -3.26398 -2.62906 2.53119
rclavicle 9.30312e-014 -4.53229e-014
rhumerus 66.7193 -1.09293 -36.8045
rradius 38.5367
rwrist -67.4289
rhand -1.99061 12.5227
rfingers 7.12502
rthumb 23.6824 -16.0384
lclavicle 9.30312e-014 -4.53229e-014
lhumerus 72.7036 -1.14383 33.4269
lradius 47.8768
lwrist 61.5418
lhand 16.1923 29.3662
lfingers 7.12502
lthumb 40.9728 54.2912
rfemur -45.0597 -11.8407 20.5524
rtibia 50.9495
rfoot -21.7555 -17.6863
rtoes -9.60405
lfemur -48.9424 -2.09156 -20.196
ltibia 45.6342
lfoot -11.2943 -1.70989
ltoes -16.3053
3327
root -0.354249 17.1491 -2.20566 17.2962 17.8979 2.17734
lowerback 19.878 3.82313 2.62408
upperback 7.2276 5.43912 -1.45855
thorax -2.8657 2.76532 -4.20579
lowerneck -7.50195 -4.73571 -4.70429
upperneck -14.9733 -5.53461 5.28916
head -3.28641 -2.62472 2.58191
rclavicle 8.74653e-015 -3.49861e-014
rhumerus 66.1375 -0.647989 -35.5577
rradius 39.6978
rwrist -68.4595
rhand -2.23072 12.4741
rfingers 7.12502
rthumb 23.4521 -16.1166
lclavicle 8.74653e-015 -3.49861e-014
lhumerus 72.1214 -1.29762 32.5014
lradius 48.8128
lwrist 62.344
lhand 16.0846 29.4442
lfingers 7.12502
lthumb 40.8716 54.4013
rfemur -45.3349 -11.9059 20.5119
rtibia 51.4028
rfoot -21.9598 -17.5963
rtoes -9.15417
lfemur -49.1792 -2.03404 -20.2978
ltibia 46.0013
lfoot -11.4508 -1.83183
ltoes -15.7642
3328
root -0.359548 17.1242 -2.21948 17.2186 17.9218 2.22575
lowerback 19.9382 3.72746 2.71593
upperback 7.36194 5.33084 -1.53955
thorax -2.74416 2.72115 -4.31896
lowerneck -7.33383 -4.72718 -4.63158
upperneck -15.057 -5.53081 5.32185
head -3.34686 -2.62985 2.58887
rclavicle -9.78021e-014 6.83819e-014
rhumerus 65.6151 -0.230145 -34.3988
rradius 40.7467
rwrist -68.797
rhand -2.26077 12.6059
rfingers 7.12502
rthumb 23.4233 -15.9885
lclavicle -9.78021e-014 6.83819e-014
lhumerus 71.5679 -1.42035 31.3623
lradius 49.7536
lwrist 63.2507
lhand 15.7989 29.2609
lfingers 7.12502
lthumb 40.6032 54.3021
rfemur -45.5391 -11.9277 20.4582
rtibia 51.8446
rfoot -22.1682 -17.5412
rtoes -8.96789
lfemur -49.3409 -1.99182 -20.3787
ltibia 46.3548
lfoot -11.6316 -1.95126
ltoes -15.3298
3329
root -0.364698 17.0991 -2.23492 17.1486 17.9405 2.27037
lowerback 20.025 3.64763 2.78666
upperback 7.41329 5.23954 -1.61398
thorax -2.72707 2.68033 -4.42374
lowerneck -6.915 -4.66493 -4.42857
upperneck -15.1562 -5.48096 5.25647
head -3.46593 -2.619 2.54902
rclavicle -4.85035e-014 -8.74653e-015
rhumerus 64.9836 0.362456 -33.1696
rradius 41.8396
rwrist -68.9692
rhand -2.74133 12.8079
rfingers 7.12502
rthumb 22.9622 -15.8446
lclavicle -4.85035e-014 -8.74653e-015
lhumerus 71.0696 -1.61481 30.2225
lradius 50.6228
lwrist 64.1136
lhand 15.5193 29.1677
lfingers 7.12502
lthumb 40.3402 54.2902
rfemur -45.7769 -11.9375 20.4025
rtibia 52.2701
rfoot -22.1881 -17.6695
rtoes -9.62992
lfemur -49.5141 -1.95389 -20.4606
ltibia 46.6868
lfoot -11.7009 -1.97476
ltoes -15.6859
3330
root -0.367984 17.0709 -2.25327 17.1962 17.9164 2.4037
lowerback 20.0818 3.56883 2.71694
upperback 7.37113 5.12226 -1.68837
thorax -2.81145 2.61967 -4.44691
lowerneck -6.36467 -4.56028 -4.29232
upperneck -15.205 -5.37878 5.17878
head -3.5931 -2.57993 2.51966
rclavicle 1.84472e-013 -7.39479e-014
rhumerus 64.3604 1.0936 -31.9292
rradius 43.033
rwrist -69.6894
rhand -3.3607 12.9061
rfingers 7.12502
rthumb 22.3678 -15.819
lclavicle 1.84472e-013 -7.39479e-014
lhumerus 70.4807 -1.86136 29.1665
lradius 51.5138
lwrist 64.8548
lhand 15.2429 29.1777
lfingers 7.12502
lthumb 40.0802 54.3795
rfemur -46.1373 -11.9683 20.2609
rtibia 52.6815
rfoot -22.1564 -17.8027
rtoes -10.2356
lfemur -49.793 -1.92781 -20.6516
ltibia 47.0003
lfoot -11.7443 -1.956
ltoes -15.9828
3331
root -0.372805 17.0487 -2.26927 17.2244 17.8677 2.57852
lowerback 20.1905 3.55224 2.64119
upperback 7.3424 5.08444 -1.77106
thorax -2.90013 2.59845 -4.49518
lowerneck -5.94633 -4.53627 -4.27474
upperneck -15.1631 -5.36481 5.22156
head -3.65416 -2.58156 2.54428
rclavicle -8.50798e-014 7.95139e-015
rhumerus 63.6544 1.67885 -30.783
rradius 44.1281
rwrist -70.5349
rhand -3.52391 13.0296
rfingers 7.12502
rthumb 22.2111 -15.7143
lclavicle -8.50798e-014 7.95139e-015
lhumerus 69.9307 -2.23113 28.1866
lradius 52.5154
lwrist 65.5459
lhand 15.0433 29.1558
lfingers 7.12502
lthumb 39.8924 54.4142
rfemur -46.4055 -11.9563 20.063
rtibia 53.0597
rfoot -22.2132 -17.8427
rtoes -10.1376
lfemur -50.0015 -1.92419 -20.8635
ltibia 47.2906
lfoot -11.8616 -1.94482
ltoes -15.69
